<svg width="25" xmlns="http://www.w3.org/2000/svg" height="25" id="screenshot-49637507-3202-8099-8006-64f49304c2da" viewBox="0 0 25 25" xmlns:xlink="http://www.w3.org/1999/xlink" fill="none" version="1.1"><g id="shape-49637507-3202-8099-8006-64f49304c2da"><g class="frame-container-wrapper"><g class="frame-container-blur"><g class="frame-container-shadows"><g fill="none"><g class="fills" id="fills-49637507-3202-8099-8006-64f49304c2da"><rect rx="0" ry="0" x="0" y="0" width="25" height="25" transform="matrix(1.000000, 0.000000, 0.000000, 1.000000, 0.000000, 0.000000)" class="frame-background"/></g><g class="frame-children"><g id="shape-49637507-3202-8099-8006-64f49304c2db" width="24" class="feather feather-github" height="24" rx="0" ry="0" style="fill: rgb(0, 0, 0);"><g id="shape-49637507-3202-8099-8006-64f49304c2dc" style="display: none;"><g class="fills" id="fills-49637507-3202-8099-8006-64f49304c2dc"><rect width="25" height="25" x="0" stroke-linejoin="round" transform="matrix(1.000000, 0.000000, 0.000000, 1.000000, 0.000000, 0.000000)" style="fill: none;" ry="0" fill="none" rx="0" y="0"/></g><g fill="none" stroke-linejoin="round" id="strokes-1673e8ad-05b9-8004-8006-8fca052ce959-49637507-3202-8099-8006-64f49304c2dc" class="strokes"><g class="inner-stroke-shape" transform="matrix(1.000000, 0.000000, 0.000000, 1.000000, 0.000000, 0.000000)"><defs><clipPath id="inner-stroke-render-9-49637507-3202-8099-8006-64f49304c2dc-0"><use href="#stroke-shape-render-9-49637507-3202-8099-8006-64f49304c2dc-0"/></clipPath><rect rx="0" ry="0" x="0" y="0" width="25" height="25" id="stroke-shape-render-9-49637507-3202-8099-8006-64f49304c2dc-0" style="fill: none; stroke-width: 4; stroke: rgb(244, 236, 236); stroke-opacity: 1;"/></defs><use href="#stroke-shape-render-9-49637507-3202-8099-8006-64f49304c2dc-0" clip-path="url('#inner-stroke-render-9-49637507-3202-8099-8006-64f49304c2dc-0')"/></g></g></g><g id="shape-49637507-3202-8099-8006-64f49304c2dd"><g class="fills" id="fills-49637507-3202-8099-8006-64f49304c2dd"><path d="M9.375015258789062,19.79150390625C4.1667633056640625,21.35400390625,4.1667633056640625,17.1875,2.0832672119140625,16.66650390625M16.666763305664062,22.91650390625L16.666763305664062,18.88525390625C16.745620727539062,17.880615234375,16.389175415039062,16.89013671875,15.687515258789062,16.16650390625C18.958267211914062,15.802001953125,22.395767211914062,14.5625,22.395767211914062,8.875C22.395523071289062,7.420654296875,21.836196899414062,6.02197265625,20.833267211914062,4.96875C21.308120727539062,3.6962890625,21.274673461914062,2.289794921875,20.739517211914062,1.04150390625C20.739517211914062,1.04150390625,19.510513305664062,0.677001953125,16.666763305664062,2.583251953125C14.279312133789062,1.936279296875,11.762466430664062,1.936279296875,9.375015258789062,2.583251953125C6.5312652587890625,0.677001953125,5.3020172119140625,1.04150390625,5.3020172119140625,1.04150390625C4.7671051025390625,2.289794921875,4.7334136962890625,3.6962890625,5.2082672119140625,4.96875C4.1980133056640625,6.02978515625,3.6379547119140625,7.44091796875,3.6457672119140625,8.90625C3.6457672119140625,14.552001953125,7.0832672119140625,15.79150390625,10.354263305664062,16.19775390625C9.661148071289062,16.9140625,9.305191040039062,17.89111328125,9.375015258789062,18.88525390625L9.375015258789062,22.91650390625" fill="none" stroke-linejoin="round" style="fill: none;"/></g><g fill="none" stroke-linejoin="round" id="strokes-1673e8ad-05b9-8004-8006-8fca052d4cba-49637507-3202-8099-8006-64f49304c2dd" class="strokes"><g class="stroke-shape"><path d="M9.375015258789062,19.79150390625C4.1667633056640625,21.35400390625,4.1667633056640625,17.1875,2.0832672119140625,16.66650390625M16.666763305664062,22.91650390625L16.666763305664062,18.88525390625C16.745620727539062,17.880615234375,16.389175415039062,16.89013671875,15.687515258789062,16.16650390625C18.958267211914062,15.802001953125,22.395767211914062,14.5625,22.395767211914062,8.875C22.395523071289062,7.420654296875,21.836196899414062,6.02197265625,20.833267211914062,4.96875C21.308120727539062,3.6962890625,21.274673461914062,2.289794921875,20.739517211914062,1.04150390625C20.739517211914062,1.04150390625,19.510513305664062,0.677001953125,16.666763305664062,2.583251953125C14.279312133789062,1.936279296875,11.762466430664062,1.936279296875,9.375015258789062,2.583251953125C6.5312652587890625,0.677001953125,5.3020172119140625,1.04150390625,5.3020172119140625,1.04150390625C4.7671051025390625,2.289794921875,4.7334136962890625,3.6962890625,5.2082672119140625,4.96875C4.1980133056640625,6.02978515625,3.6379547119140625,7.44091796875,3.6457672119140625,8.90625C3.6457672119140625,14.552001953125,7.0832672119140625,15.79150390625,10.354263305664062,16.19775390625C9.661148071289062,16.9140625,9.305191040039062,17.89111328125,9.375015258789062,18.88525390625L9.375015258789062,22.91650390625" style="fill: none; stroke-width: 2; stroke: rgb(244, 236, 236); stroke-opacity: 1;"/></g></g></g></g></g></g></g></g></g></g></svg>