<svg width="24" xmlns="http://www.w3.org/2000/svg" height="24" id="screenshot-49637507-3202-8099-8006-64f49304c2de" viewBox="0 0 24 24" xmlns:xlink="http://www.w3.org/1999/xlink" fill="none" version="1.1"><g id="shape-49637507-3202-8099-8006-64f49304c2de"><g class="frame-container-wrapper"><g class="frame-container-blur"><g class="frame-container-shadows"><g fill="none"><g class="fills" id="fills-49637507-3202-8099-8006-64f49304c2de"><rect rx="0" ry="0" x="0" y="0" width="24" height="24" transform="matrix(1.000000, 0.000000, 0.000000, 1.000000, 0.000000, 0.000000)" class="frame-background"/></g><g class="frame-children"><g id="shape-49637507-3202-8099-8006-64f49304c2df" width="24" class="feather feather-linkedin" height="24" rx="0" ry="0" style="fill: rgb(0, 0, 0);"><g id="shape-49637507-3202-8099-8006-64f49304c2e0" style="display: none;"><g class="fills" id="fills-49637507-3202-8099-8006-64f49304c2e0"><rect width="24" height="24" x="0" stroke-linejoin="round" transform="matrix(1.000000, 0.000000, 0.000000, 1.000000, 0.000000, 0.000000)" style="fill: none;" ry="0" fill="none" rx="0" y="0"/></g><g fill="none" stroke-linejoin="round" id="strokes-1673e8ad-05b9-8004-8006-8fca052e98c5-49637507-3202-8099-8006-64f49304c2e0" class="strokes"><g class="inner-stroke-shape" transform="matrix(1.000000, 0.000000, 0.000000, 1.000000, 0.000000, 0.000000)"><defs><clipPath id="inner-stroke-render-13-49637507-3202-8099-8006-64f49304c2e0-0"><use href="#stroke-shape-render-13-49637507-3202-8099-8006-64f49304c2e0-0"/></clipPath><rect rx="0" ry="0" x="0" y="0" width="24" height="24" id="stroke-shape-render-13-49637507-3202-8099-8006-64f49304c2e0-0" style="fill: none; stroke-width: 4; stroke: rgb(244, 236, 236); stroke-opacity: 1;"/></defs><use href="#stroke-shape-render-13-49637507-3202-8099-8006-64f49304c2e0-0" clip-path="url('#inner-stroke-render-13-49637507-3202-8099-8006-64f49304c2e0-0')"/></g></g></g><g id="shape-49637507-3202-8099-8006-64f49304c2e1"><g class="fills" id="fills-49637507-3202-8099-8006-64f49304c2e1"><path d="M16,8C19.313720703125,8,22,10.686279296875,22,14L22,21L18,21L18,14C18,12.895263671875,17.1044921875,12,16,12C14.8955078125,12,14,12.895263671875,14,14L14,21L10,21L10,14C10,10.686279296875,12.686279296875,8,16,8Z" fill="none" stroke-linejoin="round" style="fill: none;"/></g><g fill="none" stroke-linejoin="round" id="strokes-1673e8ad-05b9-8004-8006-8fca052ef2b3-49637507-3202-8099-8006-64f49304c2e1" class="strokes"><g class="inner-stroke-shape"><defs><clipPath id="inner-stroke-render-14-49637507-3202-8099-8006-64f49304c2e1-0"><use href="#stroke-shape-render-14-49637507-3202-8099-8006-64f49304c2e1-0"/></clipPath><path d="M16,8C19.313720703125,8,22,10.686279296875,22,14L22,21L18,21L18,14C18,12.895263671875,17.1044921875,12,16,12C14.8955078125,12,14,12.895263671875,14,14L14,21L10,21L10,14C10,10.686279296875,12.686279296875,8,16,8Z" id="stroke-shape-render-14-49637507-3202-8099-8006-64f49304c2e1-0" style="fill: none; stroke-width: 4; stroke: rgb(244, 236, 236); stroke-opacity: 1;"/></defs><use href="#stroke-shape-render-14-49637507-3202-8099-8006-64f49304c2e1-0" clip-path="url('#inner-stroke-render-14-49637507-3202-8099-8006-64f49304c2e1-0')"/></g></g></g><g id="shape-49637507-3202-8099-8006-64f49304c2e2"><g class="fills" id="fills-49637507-3202-8099-8006-64f49304c2e2"><rect width="4" height="12" x="2" stroke-linejoin="round" transform="matrix(1.000000, 0.000000, 0.000000, 1.000000, 0.000000, 0.000000)" style="fill: none;" ry="0" fill="none" rx="0" y="9"/></g><g fill="none" stroke-linejoin="round" id="strokes-1673e8ad-05b9-8004-8006-8fca052f945f-49637507-3202-8099-8006-64f49304c2e2" class="strokes"><g class="inner-stroke-shape" transform="matrix(1.000000, 0.000000, 0.000000, 1.000000, 0.000000, 0.000000)"><defs><clipPath id="inner-stroke-render-15-49637507-3202-8099-8006-64f49304c2e2-0"><use href="#stroke-shape-render-15-49637507-3202-8099-8006-64f49304c2e2-0"/></clipPath><rect rx="0" ry="0" x="2" y="9" width="4" height="12" id="stroke-shape-render-15-49637507-3202-8099-8006-64f49304c2e2-0" style="fill: none; stroke-width: 4; stroke: rgb(244, 236, 236); stroke-opacity: 1;"/></defs><use href="#stroke-shape-render-15-49637507-3202-8099-8006-64f49304c2e2-0" clip-path="url('#inner-stroke-render-15-49637507-3202-8099-8006-64f49304c2e2-0')"/></g></g></g><g id="shape-49637507-3202-8099-8006-64f49304c2e3"><g class="fills" id="fills-49637507-3202-8099-8006-64f49304c2e3"><ellipse cx="4" cy="4" rx="2" ry="2" transform="matrix(1.000000, 0.000000, 0.000000, 1.000000, 0.000000, 0.000000)" fill="none" stroke-linejoin="round" style="fill: none;"/></g><g fill="none" stroke-linejoin="round" id="strokes-1673e8ad-05b9-8004-8006-8fca05306082-49637507-3202-8099-8006-64f49304c2e3" class="strokes"><g class="inner-stroke-shape" transform="matrix(1.000000, 0.000000, 0.000000, 1.000000, 0.000000, 0.000000)"><defs><clipPath id="inner-stroke-render-16-49637507-3202-8099-8006-64f49304c2e3-0"><use href="#stroke-shape-render-16-49637507-3202-8099-8006-64f49304c2e3-0"/></clipPath><ellipse cx="4" cy="4" rx="2" ry="2" id="stroke-shape-render-16-49637507-3202-8099-8006-64f49304c2e3-0" style="fill: none; stroke-width: 4; stroke: rgb(244, 236, 236); stroke-opacity: 1;"/></defs><use href="#stroke-shape-render-16-49637507-3202-8099-8006-64f49304c2e3-0" clip-path="url('#inner-stroke-render-16-49637507-3202-8099-8006-64f49304c2e3-0')"/></g></g></g></g></g></g></g></g></g></g></svg>