<?xml version="1.0" encoding="UTF-8" standalone="no"?>
<svg
   xmlns:dc="http://purl.org/dc/elements/1.1/"
   xmlns:cc="http://creativecommons.org/ns#"
   xmlns:rdf="http://www.w3.org/1999/02/22-rdf-syntax-ns#"
   xmlns:svg="http://www.w3.org/2000/svg"
   xmlns="http://www.w3.org/2000/svg"
   viewBox="0 0 1280 720"
   height="720"
   width="1280"
   xml:space="preserve"
   id="svg2"
   version="1.1"><metadata
     id="metadata8"><rdf:RDF><cc:Work
         rdf:about=""><dc:format>image/svg+xml</dc:format><dc:type
           rdf:resource="http://purl.org/dc/dcmitype/StillImage" /></cc:Work></rdf:RDF></metadata><defs
     id="defs6"><clipPath
       id="clipPath18"
       clipPathUnits="userSpaceOnUse"><path
         style="clip-rule:evenodd"
         id="path16"
         d="M 0,1.2207e-4 H 960 V 540.00012 H 0 Z" /></clipPath><clipPath
       id="clipPath28"
       clipPathUnits="userSpaceOnUse"><path
         style="clip-rule:evenodd"
         id="path26"
         d="M 1.4305e-5,0 H 960.00001 V 540 H 1.4305e-5 Z" /></clipPath><clipPath
       id="clipPath40"
       clipPathUnits="userSpaceOnUse"><path
         style="clip-rule:evenodd"
         id="path38"
         d="M 1.4305e-5,0 H 960.00001 V 540 H 1.4305e-5 Z" /></clipPath></defs><g
     transform="matrix(1.3333333,0,0,-1.3333333,0,720)"
     id="g10"><g
       id="g12"><g
         clip-path="url(#clipPath18)"
         id="g14"><path
           id="path20"
           style="fill:#ffffff;fill-opacity:1;fill-rule:evenodd;stroke:none"
           d="M 0,6.1035e-5 H 960 V 540.00006 H 0 Z" /></g></g><g
       id="g22"><g
         clip-path="url(#clipPath28)"
         id="g24"><text
           id="text32"
           style="font-variant:normal;font-weight:normal;font-size:21.12380409px;font-family:MicrosoftSansSerif;-inkscape-font-specification:MicrosoftSansSerif;writing-mode:lr-tb;fill:#7030a0;fill-opacity:1;fill-rule:nonzero;stroke:#7030a0;stroke-width:0.57257003;stroke-linecap:butt;stroke-linejoin:miter;stroke-miterlimit:10;stroke-dasharray:none;stroke-opacity:1"
           transform="matrix(0.94869278,0,-0.31619931,-0.94869278,298.66,271.61)"><tspan
             id="tspan30"
             y="0"
             x="0 5.9146652 17.786243 23.700907 35.572487 47.317322 54.351547 66.096382 71.8843 83.629135 95.37397 100.71829 114.87125 126.74282 137.30472 149.11293 156.06267 160.87889 166.75131 177.41882">Integrated Security </tspan></text>
</g></g><g
       id="g34"><g
         clip-path="url(#clipPath40)"
         id="g36"><text
           id="text44"
           style="font-variant:normal;font-weight:normal;font-size:21.12380409px;font-family:MicrosoftSansSerif;-inkscape-font-specification:MicrosoftSansSerif;writing-mode:lr-tb;fill:#cc20d0;fill-opacity:1;fill-rule:nonzero;stroke:#cc20d0;stroke-width:0.57257003;stroke-linecap:butt;stroke-linejoin:miter;stroke-miterlimit:10;stroke-dasharray:none;stroke-opacity:1"
           transform="matrix(0.94869278,0,-0.31619931,-0.94869278,472.2,271.61)"><tspan
             id="tspan42"
             y="0"
             x="0 17.680624 29.5522 41.297035 53.04187 64.723335 76.46817 93.937553 105.68239 117.42722 123.38414 128.68622 142.83916 153.57005 164.13196 170.00436 181.74921">Management System</tspan></text>
</g></g></g></svg>